<?xml version="1.0" encoding="utf-8"?>
<!-- Generator: Adobe Illustrator 23.0.1, SVG Export Plug-In . SVG Version: 6.00 Build 0)  -->
<svg version="1.1" xmlns="http://www.w3.org/2000/svg" xmlns:xlink="http://www.w3.org/1999/xlink" x="0px" y="0px"
	 viewBox="0 0 495.72 166.7" style="enable-background:new 0 0 495.72 166.7;" xml:space="preserve">
<style type="text/css">
	.st0{fill:#A5A5A5;}
	.st1{opacity:0.46;fill:#A0A0A0;}
	.st2{fill:#707070;}
	.st3{fill:#FC001D;}
	.st4{fill:#514644;}
	.st5{fill:#D5D2CA;}
	.st6{fill:#140E17;}
	.st7{fill:#140E17;stroke:#140E17;stroke-width:4;stroke-miterlimit:10;}
	.st8{fill:none;stroke:#000000;stroke-width:2;stroke-miterlimit:10;}
	.st9{fill:none;stroke:#000000;stroke-width:8;stroke-miterlimit:10;}
	.st10{stroke:#000000;stroke-width:0.5;stroke-miterlimit:10;}
	.st11{fill:#FFFFFF;}
	.st12{fill:none;stroke:#000000;stroke-width:0.5;stroke-miterlimit:10;}
	.st13{fill:#060529;}
	.st14{stroke:#060529;stroke-width:0.5;stroke-miterlimit:10;}
	.st15{fill:none;stroke:#060529;stroke-width:0.5;stroke-miterlimit:10;}
	.st16{opacity:0;}
	.st17{fill:#FF0600;}
	.st18{fill:#FF0000;}
	.st19{fill:url(#SVGID_1_);}
	.st20{fill:#070606;}
	.st21{fill:#736863;}
	.st22{fill:#6C6360;}
	.st23{fill:#504747;}
	.st24{fill:#231D1E;}
	.st25{fill:#393738;}
	.st26{fill:url(#SVGID_2_);}
	.st27{fill:url(#SVGID_3_);}
	.st28{fill:#483F3F;}
	.st29{fill:#120D5B;}
	.st30{fill:#BFBFBF;stroke:#8A8A8A;stroke-width:7;stroke-linecap:round;stroke-miterlimit:10;}
	.st31{fill:#999999;}
	.st32{stroke:#000000;stroke-width:0.25;stroke-miterlimit:10;}
	.st33{fill:none;stroke:#8A8A8A;stroke-width:7;stroke-linecap:round;stroke-miterlimit:10;}
	.st34{fill:none;stroke:#FE040C;stroke-width:7;stroke-linecap:round;stroke-miterlimit:10;}
	.st35{fill:#FDD206;stroke:#FFFFFF;stroke-width:7;stroke-linecap:round;stroke-miterlimit:10;}
	.st36{fill:#0B0623;}
	.st37{fill:none;stroke:#0E0E0D;stroke-width:9;stroke-linecap:round;stroke-miterlimit:10;}
	.st38{fill:none;stroke:#151115;stroke-width:7;stroke-linecap:round;stroke-miterlimit:10;}
	.st39{fill:none;stroke:#545454;stroke-width:7;stroke-linecap:round;stroke-miterlimit:10;}
	.st40{opacity:0.85;}
	.st41{fill:none;stroke:#000000;stroke-width:7;stroke-linecap:round;stroke-miterlimit:10;}
	.st42{fill:none;stroke:#494949;stroke-width:7;stroke-linecap:round;stroke-miterlimit:10;}
	.st43{fill:#494949;}
	.st44{fill:none;stroke:#494949;stroke-width:5;stroke-linecap:round;stroke-miterlimit:10;}
	.st45{fill:#6D6D6D;}
	.st46{fill:none;stroke:#040404;stroke-miterlimit:10;}
	.st47{fill:#040404;}
	.st48{fill:#757575;}
	.st49{fill:none;}
	.st50{opacity:0.61;}
	.st51{fill:none;stroke:#494949;stroke-width:0.25;stroke-linecap:round;stroke-miterlimit:10;}
</style>
<g id="Layer_1">
</g>
<g id="Layer_2">
	<g>
		<g>
			<path class="st43" d="M324.59,82c-0.94,0-1.82-0.57-2.17-1.51l-16.08-42.81c-0.2-0.54-0.97-0.54-1.17,0l-16.04,42.65
				c-0.42,1.11-1.56,1.87-2.72,1.61c-1.42-0.31-2.18-1.78-1.69-3.09L303,30.26c0.39-1.09,1.43-1.86,2.62-1.91
				c1.19-0.06,2.29,0.61,2.8,1.7l0.07,0.16l18.21,48.48c0.42,1.12,0.05,2.48-1.01,3.04C325.33,81.91,324.96,82,324.59,82z
				 M307.36,31.86l-0.02,0.05C307.34,31.89,307.35,31.88,307.36,31.86z"/>
		</g>
		<g>
			<path class="st43" d="M44.34,81.57c-1.31,0-2.56-0.04-3.73-0.08c-1.19-0.04-2.33-0.08-3.35-0.06c-0.01,0-0.02,0-0.03,0
				c-1.44,0-2.6-1.26-2.4-2.76c0.16-1.21,1.29-2.09,2.51-2.09c1.09-0.01,2.22,0.03,3.41,0.07c6.26,0.2,14.54,0.25,21.6-5.23
				c5-3.88,6.74-9.04,6.64-16.78c-0.11-8.1-2.39-14-7.79-17.96c-6.77-4.96-16.86-4.2-24.06-4.09c-0.01,0-0.02,0-0.04,0
				c-1.45,0-2.6-1.27-2.4-2.77c0.17-1.22,1.31-2.06,2.54-2.08c7.48-0.1,18.8-0.85,26.82,5.04c6.62,4.86,9.64,12.2,9.77,21.81
				c0.12,9.25-2.32,15.87-8.51,20.67C58.45,80.6,50.18,81.57,44.34,81.57z"/>
		</g>
		<g>
			<path class="st43" d="M134.18,81.57l-28.93,0c-0.54,0-0.97-0.44-0.97-0.97V28.62c0-0.49,0.39-0.88,0.88-0.88l29.02,0
				c1.1,0,2.15,0.7,2.39,1.77c0.35,1.52-0.79,2.88-2.26,2.88h-24.62c-0.43,0-0.77,0.35-0.77,0.77v42.76c0,0.56,0.46,1.02,1.02,1.02
				h24.38c1.46,0,2.61,1.35,2.26,2.88C136.32,80.88,135.27,81.57,134.18,81.57z"/>
		</g>
		<g>
			<path class="st43" d="M199.2,81.57l-26.87,0c-0.77,0-1.4-0.63-1.4-1.4V29.9c0-0.67,0.29-1.34,0.86-1.7
				c1.85-1.18,3.79,0.11,3.79,1.87v45.89c0,0.54,0.44,0.98,0.98,0.98h22.48c1.75,0,3.05,1.94,1.87,3.79
				C200.54,81.28,199.87,81.57,199.2,81.57z"/>
		</g>
		<path class="st43" d="M244.62,27.74l-24.58,0c-1.1,0-2.15,0.7-2.39,1.77c-0.35,1.52,0.79,2.88,2.26,2.88h21.68
			c0.43,0,0.77,0.35,0.77,0.77l0,45.96c0,1.1,0.7,2.15,1.77,2.39c1.52,0.35,2.88-0.79,2.88-2.26V30.12
			C247,28.81,245.93,27.74,244.62,27.74z"/>
		<g class="st50">
			<path class="st43" d="M112.84,134.02l-1.69-3.84c-0.04-0.08-0.12-0.14-0.21-0.14h-6.14c-0.09,0-0.17,0.05-0.21,0.14l-1.73,3.85
				c-0.06,0.12-0.18,0.2-0.32,0.2h-2.56l7.71-16.54c0.07-0.15,0.27-0.15,0.34,0l7.69,16.54h-2.56
				C113.02,134.23,112.89,134.15,112.84,134.02z M105.78,127.84h4.2c0.08,0,0.13-0.08,0.1-0.15l-1.6-3.56
				c-0.1-0.24-0.2-0.51-0.3-0.82c-0.1-0.31-0.21-0.65-0.31-1.03c-0.09,0.36-0.18,0.69-0.28,0.99c-0.1,0.31-0.2,0.59-0.3,0.85
				l-1.6,3.56C105.65,127.76,105.7,127.84,105.78,127.84z"/>
			<path class="st43" d="M135.27,117.96h2.04c0.16,0,0.28,0.13,0.28,0.28v9.59c0,1.47,0.34,2.57,1.02,3.31
				c0.68,0.74,1.69,1.11,3.04,1.11c1.34,0,2.35-0.37,3.03-1.11c0.68-0.74,1.02-1.84,1.02-3.31v-9.59c0-0.16,0.13-0.28,0.28-0.28
				h2.07c0.16,0,0.28,0.13,0.28,0.28v9.84c0,2.2-0.56,3.85-1.67,4.94s-2.78,1.64-5.02,1.64c-2.24,0-3.91-0.55-5.01-1.63
				c-1.1-1.09-1.66-2.74-1.66-4.94v-9.84C134.98,118.09,135.11,117.96,135.27,117.96z"/>
			<path class="st43" d="M175.43,120.48v13.48c0,0.15-0.12,0.27-0.27,0.27h-2.1c-0.15,0-0.27-0.12-0.27-0.27v-13.48
				c0-0.15-0.12-0.27-0.27-0.27h-4.05v-2.24h11.26v2.24h-4.03C175.55,120.21,175.43,120.33,175.43,120.48z"/>
			<path class="st43" d="M215.82,126.13c0,1.16-0.22,2.25-0.65,3.28c-0.43,1.03-1.06,1.95-1.89,2.76c-0.84,0.81-1.78,1.43-2.83,1.85
				c-1.05,0.43-2.15,0.65-3.31,0.65c-1.17,0-2.29-0.22-3.35-0.65c-1.06-0.43-2-1.05-2.82-1.85c-0.83-0.81-1.46-1.72-1.89-2.74
				s-0.64-2.12-0.64-3.29c0-1.16,0.22-2.26,0.64-3.29c0.43-1.03,1.06-1.95,1.89-2.77c0.83-0.81,1.77-1.42,2.82-1.84
				c1.05-0.42,2.17-0.63,3.34-0.63c1.17,0,2.28,0.21,3.33,0.63c1.05,0.42,1.99,1.04,2.82,1.84c0.83,0.82,1.46,1.75,1.89,2.78
				C215.6,123.89,215.82,124.98,215.82,126.13z M213.06,126.13c0-0.82-0.15-1.6-0.45-2.34c-0.3-0.74-0.73-1.4-1.29-1.98
				c-0.55-0.57-1.18-1.01-1.91-1.32c-0.72-0.31-1.48-0.46-2.28-0.46c-0.8,0-1.56,0.15-2.28,0.46c-0.72,0.3-1.37,0.74-1.93,1.32
				c-0.56,0.57-0.99,1.23-1.29,1.97c-0.3,0.74-0.44,1.52-0.44,2.36c0,0.82,0.15,1.6,0.44,2.33c0.3,0.73,0.73,1.39,1.29,1.97
				c0.56,0.58,1.2,1.02,1.92,1.32c0.72,0.3,1.48,0.46,2.29,0.46c0.79,0,1.54-0.15,2.26-0.46c0.71-0.3,1.36-0.74,1.93-1.32
				c0.56-0.58,0.99-1.24,1.29-1.97C212.91,127.72,213.06,126.94,213.06,126.13z"/>
			<path class="st43" d="M250.32,126.19c-0.03-0.12-0.08-0.47-0.15-1.04c-0.06-0.48-0.11-0.87-0.15-1.18
				c-0.07,0.37-0.16,0.74-0.28,1.11c-0.12,0.37-0.28,0.75-0.46,1.13l-3.99,8.12c-0.11,0.22-0.42,0.22-0.53,0l-3.99-8.3
				c-0.18-0.36-0.33-0.72-0.46-1.06c-0.13-0.34-0.24-0.68-0.34-1.01c-0.01,0.34-0.04,0.7-0.08,1.07c-0.05,0.37-0.12,0.76-0.22,1.17
				l-1.7,7.8c-0.03,0.12-0.14,0.21-0.26,0.21h-2.21l3.66-16.16c0.06-0.26,0.41-0.3,0.52-0.06l4.46,9.53
				c0.08,0.16,0.19,0.43,0.34,0.81c0.15,0.38,0.33,0.84,0.55,1.4c0.16-0.46,0.4-1.06,0.73-1.78c0.09-0.19,0.15-0.34,0.2-0.44
				l4.35-9.51c0.11-0.24,0.46-0.21,0.52,0.05l3.75,16.16h-2.24c-0.13,0-0.24-0.09-0.26-0.21L250.32,126.19z"/>
			<path class="st43" d="M291.56,126.13c0,1.16-0.22,2.25-0.65,3.28c-0.43,1.03-1.06,1.95-1.89,2.76c-0.84,0.81-1.78,1.43-2.83,1.85
				c-1.05,0.43-2.15,0.65-3.31,0.65c-1.17,0-2.29-0.22-3.35-0.65c-1.06-0.43-2-1.05-2.82-1.85c-0.83-0.81-1.46-1.72-1.89-2.74
				c-0.43-1.02-0.64-2.12-0.64-3.29c0-1.16,0.22-2.26,0.64-3.29c0.43-1.03,1.06-1.95,1.89-2.77c0.83-0.81,1.77-1.42,2.82-1.84
				c1.05-0.42,2.17-0.63,3.34-0.63c1.17,0,2.28,0.21,3.33,0.63c1.05,0.42,1.99,1.04,2.82,1.84c0.83,0.82,1.46,1.75,1.89,2.78
				C291.34,123.89,291.56,124.98,291.56,126.13z M288.8,126.13c0-0.82-0.15-1.6-0.45-2.34c-0.3-0.74-0.73-1.4-1.29-1.98
				c-0.55-0.57-1.18-1.01-1.91-1.32c-0.72-0.31-1.48-0.46-2.28-0.46s-1.56,0.15-2.28,0.46c-0.72,0.3-1.37,0.74-1.93,1.32
				c-0.56,0.57-0.99,1.23-1.29,1.97c-0.3,0.74-0.44,1.52-0.44,2.36c0,0.82,0.15,1.6,0.44,2.33c0.3,0.73,0.73,1.39,1.29,1.97
				c0.56,0.58,1.2,1.02,1.92,1.32c0.72,0.3,1.48,0.46,2.29,0.46c0.79,0,1.54-0.15,2.26-0.46c0.71-0.3,1.36-0.74,1.93-1.32
				c0.56-0.58,0.99-1.24,1.29-1.97C288.65,127.72,288.8,126.94,288.8,126.13z"/>
			<path class="st43" d="M317.23,120.46v13.51c0,0.14-0.11,0.25-0.25,0.25h-2.14c-0.14,0-0.25-0.11-0.25-0.25v-13.51
				c0-0.14-0.11-0.25-0.25-0.25h-4.07v-2.24h11.26v2.24h-4.05C317.35,120.21,317.23,120.32,317.23,120.46z"/>
			<path class="st43" d="M341.8,133.96v-15.74c0-0.14,0.12-0.26,0.26-0.26h2.12c0.14,0,0.26,0.12,0.26,0.26v15.74
				c0,0.14-0.12,0.26-0.26,0.26h-2.12C341.92,134.23,341.8,134.11,341.8,133.96z"/>
			<path class="st43" d="M371.88,134.22c-0.1,0.24-0.44,0.24-0.55,0l-6.98-16.26h2.55c0.12,0,0.23,0.07,0.27,0.18l3.57,8.48
				c0.21,0.5,0.39,0.97,0.53,1.39c0.14,0.43,0.25,0.83,0.33,1.22c0.1-0.41,0.22-0.83,0.37-1.27c0.15-0.44,0.32-0.88,0.52-1.34
				l3.56-8.48c0.05-0.11,0.15-0.18,0.27-0.18h2.54L371.88,134.22z"/>
			<path class="st43" d="M398.71,133.97v-15.75c0-0.14,0.11-0.26,0.26-0.26h8.82v2.24h-6.18c-0.14,0-0.26,0.11-0.26,0.26v3.57
				c0,0.14,0.11,0.26,0.26,0.26h6.18v2.32h-6.18c-0.14,0-0.26,0.11-0.26,0.26v4.74c0,0.14,0.11,0.26,0.26,0.26h6.18v2.37h-8.82
				C398.82,134.23,398.71,134.11,398.71,133.97z"/>
		</g>
		<g>
			<path class="st43" d="M403.15,58.33c-0.27-0.48-0.54-0.91-0.8-1.39L383.1,79.01c-0.54,0.62-0.48,1.56,0.14,2.1
				c0.28,0.25,0.63,0.37,0.98,0.37c0.41,0,0.83-0.17,1.12-0.51l18.58-21.31C403.69,59.21,403.39,58.77,403.15,58.33z"/>
			<path class="st43" d="M406.18,52.54l-2.79,3.19c-0.02,0.02-0.02,0.05-0.01,0.07c0.33,0.52,0.56,1.08,0.84,1.64
				c0.19,0.38,0.44,0.73,0.69,1.07l2.83-3.24c0.02-0.02,0.02-0.05,0.01-0.07c-0.55-0.86-1.13-1.72-1.48-2.65
				C406.26,52.51,406.21,52.5,406.18,52.54z"/>
			<path class="st43" d="M408.82,54.04l18.59-22.22c0.54-0.62,0.48-1.56-0.14-2.1c-0.62-0.54-1.56-0.48-2.1,0.14l-18.02,21.57"/>
		</g>
		<path class="st43" d="M465.29,76.94h-43.7c-0.95,0-1.83-0.52-2.29-1.35l-24.93-45.43c-0.42-0.76-1.21-1.16-2.02-1.14
			c-0.17-0.04-0.35-0.07-0.53-0.07l-14.71,0.02c-1.23,0-2.24,1-2.24,2.24c0,1.23,1,2.24,2.24,2.24l12.52-0.01
			c0.89,0,1.71,0.48,2.14,1.26l25,45.55c0.41,0.74,1.17,1.15,1.96,1.15c0.04,0,0.08-0.01,0.12-0.01c0.11,0.02,0.23,0.03,0.35,0.03
			h46.11c1.23,0,2.24-1,2.24-2.24S466.52,76.94,465.29,76.94z"/>
	</g>
</g>
</svg>
