<?xml version="1.0" encoding="utf-8"?>
<!-- Generator: Adobe Illustrator 27.1.0, SVG Export Plug-In . SVG Version: 6.00 Build 0)  -->
<svg version="1.1" id="Layer_1" xmlns="http://www.w3.org/2000/svg" xmlns:xlink="http://www.w3.org/1999/xlink" x="0px" y="0px"
	 viewBox="0 0 792 612" style="enable-background:new 0 0 792 612;" xml:space="preserve">
<style type="text/css">
	.st0{fill:#FBBC14;}
</style>
<g>
	<path class="st0" d="M150.9,267.4c-3.5-0.5-6.6-3.4-6.6-7.6V214c0-4.2-3.4-7.7-7.7-7.7H96.3c-4.2,0-7.7,3.4-7.7,7.7v115.6
		C109.4,308.9,130.2,288.1,150.9,267.4z"/>
	<path class="st0" d="M282,388.1l-78.9-78.9c-3-3-3-7.9,0-10.9l78.1-78.1c5.1-5.1,1.5-13.9-5.8-13.9h-56c-2,0-4,0.8-5.4,2.2
		l-56.6,56.6c-0.4,0.4-0.9,0.7-1.3,1c-22.5,22.5-45,45-67.5,67.5v59.8c0,4.2,3.4,7.7,7.7,7.7h40.3c4.2,0,7.7-3.5,7.7-7.7v-45.7
		c0-6.9,8.3-10.3,13.1-5.4l56.6,56.6c1.4,1.4,3.4,2.2,5.4,2.2h57C283.4,401.2,286.8,393,282,388.1z"/>
	<path class="st0" d="M402.7,401.2h-39.4c-4.5,0-8.1-3.6-8.1-8.1V214.5c0-4.5,3.6-8.1,8.1-8.1h39.4c4.5,0,8.1,3.6,8.1,8.1v178.6
		C410.8,397.6,407.2,401.2,402.7,401.2z"/>
	<path class="st0" d="M647.2,309.6c-0.5-0.5-1-1.2-1.3-1.8L598.1,260c-0.7-0.4-1.3-0.8-1.8-1.3l-77.8-77.8
		c-5.1-5.1-13.9-1.5-13.9,5.8v55.7c0,2.2,0.9,4.2,2.4,5.8l49.9,49.9c3.2,3.2,3.2,8.4,0,11.5l-77.8,77.8c-5.1,5.1-1.5,13.9,5.8,13.9
		h55.7c2.2,0,4.2-0.9,5.8-2.4l49.9-49.9c3.2-3.2,8.3-3.2,11.5,0l77.8,77.8c5.1,5.1,13.9,1.5,13.9-5.8v-55.7c0-2.2-0.9-4.2-2.4-5.8
		L647.2,309.6z"/>
	<path class="st0" d="M719.2,206.4h-55.7c-2.2,0-4.2,0.9-5.8,2.4l-49.9,49.9c-1.3,1.3-3,2-4.7,2.3c13.9,13.9,27.8,27.9,41.8,41.8
		c0.2-1.7,1-3.4,2.3-4.7l77.8-77.8C730.1,215.1,726.4,206.4,719.2,206.4z"/>
</g>
</svg>
