<?xml version="1.0" encoding="utf-8"?>
<!-- Generator: Adobe Illustrator 23.0.1, SVG Export Plug-In . SVG Version: 6.00 Build 0)  -->
<svg version="1.1" id="Layer_1" xmlns="http://www.w3.org/2000/svg" xmlns:xlink="http://www.w3.org/1999/xlink" x="0px" y="0px"
	 viewBox="0 0 792 612" style="enable-background:new 0 0 792 612;" xml:space="preserve">
<style type="text/css">
	.st0{opacity:0.76;}
	.st1{fill:#0B080D;}
</style>
<g class="st0">
	<path class="st1" d="M138.95,267.36c-3.51-0.52-6.61-3.42-6.61-7.62l0-45.69c0-4.25-3.45-7.7-7.7-7.7H84.35
		c-4.25,0-7.7,3.45-7.7,7.7l0,115.6C97.42,308.89,118.18,288.13,138.95,267.36z"/>
	<path class="st1" d="M269.96,388.11l-78.86-78.86c-3.01-3.01-3.01-7.88,0-10.89l78.12-78.12c5.12-5.12,1.49-13.89-5.75-13.89
		l-55.97,0c-2.04,0-4,0.81-5.44,2.25l-56.58,56.58c-0.41,0.41-0.85,0.74-1.3,1.03c-22.51,22.51-45.01,45.02-67.52,67.52l0,59.81
		c0,4.25,3.45,7.7,7.7,7.7l40.29,0c4.25,0,7.7-3.45,7.7-7.7v-45.69c0-6.86,8.29-10.29,13.14-5.44l56.58,56.58
		c1.44,1.44,3.4,2.25,5.44,2.25h57.02C271.37,401.25,274.81,392.96,269.96,388.11z"/>
	<path class="st1" d="M390.7,401.25h-39.42c-4.49,0-8.13-3.64-8.13-8.13l0-178.63c0-4.49,3.64-8.13,8.13-8.13l39.42,0
		c4.49,0,8.13,3.64,8.13,8.13l0,178.63C398.83,397.61,395.19,401.25,390.7,401.25z"/>
	<path class="st1" d="M635.19,309.57c-0.55-0.55-0.98-1.18-1.34-1.83l-47.76-47.76c-0.65-0.36-1.28-0.78-1.83-1.34l-77.75-77.75
		c-5.14-5.14-13.93-1.5-13.93,5.77l0,55.71c0,2.16,0.86,4.24,2.39,5.77l49.89,49.89c3.19,3.19,3.19,8.35,0,11.54l-77.75,77.75
		c-5.14,5.14-1.5,13.93,5.77,13.93h55.71c2.16,0,4.24-0.86,5.77-2.39l49.89-49.89c3.19-3.19,8.35-3.19,11.54,0l77.75,77.75
		c5.14,5.14,13.93,1.5,13.93-5.77v-55.71c0-2.16-0.86-4.24-2.39-5.77L635.19,309.57z"/>
	<path class="st1" d="M707.17,206.36l-55.71,0c-2.16,0-4.24,0.86-5.77,2.39l-49.89,49.89c-1.31,1.31-2.96,2.05-4.67,2.28
		c13.93,13.93,27.85,27.85,41.78,41.78c0.23-1.71,0.97-3.36,2.28-4.67l77.75-77.75C718.08,215.15,714.44,206.36,707.17,206.36z"/>
</g>
</svg>
